<svg width="25" height="25" viewBox="0 0 25 25" fill="none" xmlns="http://www.w3.org/2000/svg">
<circle cx="12.5" cy="12.5" r="12.5" fill="white"/>
<path d="M9 8.89583C9 8.39303 9.19974 7.91081 9.55528 7.55528C9.91081 7.19974 10.393 7 10.8958 7H12.7917V10.7917H10.8958C10.393 10.7917 9.91081 10.5919 9.55528 10.2364C9.19974 9.88085 9 9.39864 9 8.89583Z" stroke="black" stroke-linecap="round" stroke-linejoin="round"/>
<path d="M12.7915 7H14.6873C14.9363 7 15.1828 7.04904 15.4128 7.14431C15.6429 7.23959 15.8518 7.37923 16.0279 7.55528C16.2039 7.73132 16.3436 7.94032 16.4389 8.17033C16.5341 8.40034 16.5832 8.64687 16.5832 8.89583C16.5832 9.1448 16.5341 9.39132 16.4389 9.62134C16.3436 9.85135 16.2039 10.0603 16.0279 10.2364C15.8518 10.4124 15.6429 10.5521 15.4128 10.6474C15.1828 10.7426 14.9363 10.7917 14.6873 10.7917H12.7915V7Z" stroke="black" stroke-linecap="round" stroke-linejoin="round"/>
<path d="M12.7915 12.6868C12.7915 12.4379 12.8405 12.1914 12.9358 11.9613C13.0311 11.7313 13.1707 11.5223 13.3468 11.3463C13.5228 11.1702 13.7318 11.0306 13.9618 10.9353C14.1918 10.8401 14.4384 10.791 14.6873 10.791C14.9363 10.791 15.1828 10.8401 15.4128 10.9353C15.6429 11.0306 15.8518 11.1702 16.0279 11.3463C16.2039 11.5223 16.3436 11.7313 16.4389 11.9613C16.5341 12.1914 16.5832 12.4379 16.5832 12.6868C16.5832 12.9358 16.5341 13.1823 16.4389 13.4124C16.3436 13.6424 16.2039 13.8514 16.0279 14.0274C15.8518 14.2034 15.6429 14.3431 15.4128 14.4384C15.1828 14.5336 14.9363 14.5827 14.6873 14.5827C14.4384 14.5827 14.1918 14.5336 13.9618 14.4384C13.7318 14.3431 13.5228 14.2034 13.3468 14.0274C13.1707 13.8514 13.0311 13.6424 12.9358 13.4124C12.8405 13.1823 12.7915 12.9358 12.7915 12.6868Z" stroke="black" stroke-linecap="round" stroke-linejoin="round"/>
<path d="M9 16.4798C9 15.977 9.19974 15.4948 9.55528 15.1393C9.91081 14.7837 10.393 14.584 10.8958 14.584H12.7917V16.4798C12.7917 16.9826 12.5919 17.4648 12.2364 17.8204C11.8809 18.1759 11.3986 18.3757 10.8958 18.3757C10.393 18.3757 9.91081 18.1759 9.55528 17.8204C9.19974 17.4648 9 16.9826 9 16.4798Z" stroke="black" stroke-linecap="round" stroke-linejoin="round"/>
<path d="M9 12.6868C9 12.184 9.19974 11.7018 9.55528 11.3463C9.91081 10.9908 10.393 10.791 10.8958 10.791H12.7917V14.5827H10.8958C10.393 14.5827 9.91081 14.3829 9.55528 14.0274C9.19974 13.6719 9 13.1897 9 12.6868Z" stroke="black" stroke-linecap="round" stroke-linejoin="round"/>
</svg>