<svg width="25" height="25" viewBox="0 0 25 25" fill="none" xmlns="http://www.w3.org/2000/svg">
<circle cx="12.5" cy="12.5" r="12.5" fill="white"/>
<circle cx="12.5" cy="12.5" r="12.5" fill="white"/>
<g clip-path="url(#clip0_362_216)">
<path d="M10.8749 16.2919C8.16659 17.1044 8.16659 14.9377 7.08325 14.6669M14.6666 17.9169V15.8206C14.6869 15.5623 14.652 15.3027 14.5642 15.0589C14.4764 14.8152 14.3378 14.5929 14.1574 14.4069C15.8583 14.2173 17.6458 13.5727 17.6458 10.6152C17.6456 9.85893 17.3547 9.13167 16.8333 8.58394C17.0802 7.9223 17.0627 7.19096 16.7845 6.54186C16.7845 6.54186 16.1453 6.35227 14.6666 7.34352C13.4251 7.00705 12.1164 7.00705 10.8749 7.34352C9.39617 6.35227 8.757 6.54186 8.757 6.54186C8.47879 7.19096 8.46133 7.9223 8.70825 8.58394C8.1829 9.13574 7.8917 9.86957 7.89575 10.6314C7.89575 13.5673 9.68325 14.2119 11.3841 14.4231C11.2059 14.6073 11.0684 14.8269 10.9807 15.0676C10.893 15.3084 10.8569 15.565 10.8749 15.8206V17.9169" stroke="black" stroke-linecap="round" stroke-linejoin="round"/>
</g>
<defs>
<clipPath id="clip0_362_216">
<rect width="13" height="13" fill="white" transform="translate(6 6)"/>
</clipPath>
</defs>
</svg>