<svg width="25" height="25" viewBox="0 0 25 25" fill="none" xmlns="http://www.w3.org/2000/svg">
<circle cx="12.5" cy="12.5" r="12.5" fill="white"/>
<circle cx="12.5" cy="12.5" r="12.5" fill="white"/>
<path d="M18.2091 9.47685C18.1447 9.21978 18.0137 8.98424 17.8292 8.79403C17.6447 8.60381 17.4132 8.46566 17.1582 8.39352C16.2266 8.16602 12.4999 8.16602 12.4999 8.16602C12.4999 8.16602 8.77324 8.16602 7.84157 8.41518C7.58658 8.48732 7.35514 8.62548 7.17063 8.81569C6.98612 9.00591 6.85508 9.24145 6.79074 9.49852C6.62023 10.444 6.53682 11.4032 6.54157 12.3639C6.53549 13.3319 6.6189 14.2984 6.79074 15.251C6.86167 15.5001 6.99565 15.7267 7.17973 15.9089C7.36381 16.091 7.59176 16.2227 7.84157 16.291C8.77324 16.5402 12.4999 16.5402 12.4999 16.5402C12.4999 16.5402 16.2266 16.5402 17.1582 16.291C17.4132 16.2189 17.6447 16.0807 17.8292 15.8905C18.0137 15.7003 18.1447 15.4648 18.2091 15.2077C18.3783 14.2693 18.4617 13.3174 18.4582 12.3639C18.4643 11.3959 18.3809 10.4295 18.2091 9.47685Z" stroke="black" stroke-linecap="round" stroke-linejoin="round"/>
<path d="M11.2812 14.1363L14.3958 12.365L11.2812 10.5938V14.1363Z" stroke="black" stroke-linecap="round" stroke-linejoin="round"/>
</svg>